<?xml version="1.0" encoding="iso-8859-1"?>
<!-- Generator: Adobe Illustrator 16.0.0, SVG Export Plug-In . SVG Version: 6.00 Build 0)  -->
<!DOCTYPE svg PUBLIC "-//W3C//DTD SVG 1.1//EN" "http://www.w3.org/Graphics/SVG/1.1/DTD/svg11.dtd">
<svg xmlns="http://www.w3.org/2000/svg" xmlns:xlink="http://www.w3.org/1999/xlink" version="1.1" id="Capa_1" x="0px" y="0px" width="512px" height="512px" viewBox="0 0 47.63 47.63" style="enable-background:new 0 0 47.63 47.63;" xml:space="preserve">
<g>
	<path d="M44.667,20.193h-7.843c-0.024-0.054-0.051-0.11-0.079-0.163L29.506,6.932c-0.791-1.431-2.591-1.95-4.021-1.159   c-1.434,0.791-1.948,2.592-1.16,4.023l5.748,10.397H17.558l5.743-10.397c0.791-1.431,0.273-3.232-1.157-4.023   c-1.433-0.792-3.233-0.272-4.022,1.159L10.884,20.03c-0.029,0.053-0.055,0.109-0.08,0.163H2.961C1.326,20.193,0,21.519,0,23.153   c0,1.637,1.326,2.96,2.961,2.96h18.951v3.393H11.497l-0.854-1.48H4.292l7.406,12.827c0.49,0.854,1.398,1.375,2.381,1.375h19.469   c0.981,0,1.892-0.521,2.382-1.375l8.51-14.737h0.229c1.635,0,2.961-1.323,2.961-2.96C47.627,21.519,46.301,20.193,44.667,20.193z    M13.694,33.312h8.217v3.417h-6.244L13.694,33.312z M31.96,36.729h-6.242v-3.417h8.216L31.96,36.729z M36.131,29.505H25.717v-3.391   h12.371L36.131,29.505z" fill="#D80027"/>
</g>
<g>
</g>
<g>
</g>
<g>
</g>
<g>
</g>
<g>
</g>
<g>
</g>
<g>
</g>
<g>
</g>
<g>
</g>
<g>
</g>
<g>
</g>
<g>
</g>
<g>
</g>
<g>
</g>
<g>
</g>
</svg>
