<?xml version="1.0" encoding="iso-8859-1"?>
<!-- Generator: Adobe Illustrator 16.0.0, SVG Export Plug-In . SVG Version: 6.00 Build 0)  -->
<!DOCTYPE svg PUBLIC "-//W3C//DTD SVG 1.1//EN" "http://www.w3.org/Graphics/SVG/1.1/DTD/svg11.dtd">
<svg xmlns="http://www.w3.org/2000/svg" xmlns:xlink="http://www.w3.org/1999/xlink" version="1.1" id="Capa_1" x="0px" y="0px" width="512px" height="512px" viewBox="0 0 37.454 37.454" style="enable-background:new 0 0 37.454 37.454;" xml:space="preserve">
<g>
	<path d="M37.438,5.099l0.017,4.682L31.938,9.8l-3.215,16.208l-4.102,0.013c1.039,0.564,1.746,1.664,1.75,2.93   c0.006,1.848-1.486,3.35-3.333,3.354c-1.847,0.007-3.349-1.485-3.354-3.332c-0.004-1.267,0.695-2.37,1.731-2.938L9.463,26.071   c1.039,0.564,1.746,1.663,1.75,2.93c0.006,1.848-1.485,3.349-3.333,3.354c-1.846,0.007-3.348-1.483-3.354-3.333   c-0.004-1.265,0.695-2.367,1.73-2.938l-3.375,0.011l-0.016-4.683l22.009-0.071L28.09,5.133L37.438,5.099z M18.765,19.538   l6.194-13.834L0,5.788l6.286,13.793L18.765,19.538z" fill="#D80027"/>
</g>
<g>
</g>
<g>
</g>
<g>
</g>
<g>
</g>
<g>
</g>
<g>
</g>
<g>
</g>
<g>
</g>
<g>
</g>
<g>
</g>
<g>
</g>
<g>
</g>
<g>
</g>
<g>
</g>
<g>
</g>
</svg>
